<svg width="24" height="24" viewBox="0 0 24 24" fill="none" xmlns="http://www.w3.org/2000/svg">
<path fill-rule="evenodd" clip-rule="evenodd" d="M16.7062 3.07121C14.9632 3.53321 12.6542 4.45521 9.48921 5.72121C8.09821 6.27821 7.57221 6.49921 7.16521 6.85621C7.05521 6.95287 6.95221 7.05587 6.85621 7.16521C6.49921 7.57221 6.27821 8.09821 5.72221 9.48921C4.45521 12.6542 3.53321 14.9632 3.07221 16.7062C2.60221 18.4742 2.67921 19.4162 3.09221 20.0242C3.32821 20.3722 3.62821 20.6722 3.97621 20.9082C4.58321 21.3212 5.52621 21.3982 7.29421 20.9282C9.03721 20.4662 11.3462 19.5442 14.5112 18.2782C15.9022 17.7222 16.4282 17.5012 16.8352 17.1442C16.9452 17.0475 17.0482 16.9445 17.1442 16.8352C17.5022 16.4282 17.7222 15.9022 18.2782 14.5112C19.5452 11.3462 20.4672 9.03721 20.9282 7.29421C21.3982 5.52621 21.3212 4.58421 20.9082 3.97621C20.6727 3.62755 20.3726 3.32715 20.0242 3.09121C19.4172 2.67921 18.4742 2.60321 16.7062 3.07121ZM16.3222 1.62121C18.1492 1.13721 19.6782 1.04221 20.8672 1.85121C21.3722 2.19421 21.8072 2.62821 22.1492 3.13321C22.9582 4.32321 22.8632 5.85121 22.3792 7.67821C21.8902 9.52021 20.9332 11.9142 19.6932 15.0142L19.6712 15.0682L19.6212 15.1952C19.1332 16.4152 18.8192 17.2002 18.2712 17.8242C18.1325 17.9829 17.9835 18.1319 17.8242 18.2712C17.2002 18.8192 16.4152 19.1322 15.1942 19.6212L15.0682 19.6712L15.0142 19.6932C11.9142 20.9332 9.52021 21.8902 7.67921 22.3782C5.85121 22.8632 4.32221 22.9582 3.13321 22.1492C2.62831 21.8072 2.19322 21.3721 1.85121 20.8672C1.04221 19.6772 1.13721 18.1492 1.62121 16.3212C2.11021 14.4802 3.06721 12.0862 4.30721 8.98621L4.32921 8.93221L4.37921 8.80521C4.86821 7.58521 5.18121 6.80021 5.72921 6.17621C5.86854 6.01754 6.01754 5.86821 6.17621 5.72821C6.80021 5.18121 7.58521 4.86821 8.80621 4.38021L8.93221 4.32921L8.98621 4.30721C12.0862 3.06721 14.4802 2.10921 16.3222 1.62121ZM12.0002 9.75021C11.4035 9.75021 10.8312 9.98726 10.4092 10.4092C9.98726 10.8312 9.75021 11.4035 9.75021 12.0002C9.75021 12.5969 9.98726 13.1692 10.4092 13.5912C10.8312 14.0132 11.4035 14.2502 12.0002 14.2502C12.5969 14.2502 13.1692 14.0132 13.5912 13.5912C14.0132 13.1692 14.2502 12.5969 14.2502 12.0002C14.2502 11.4035 14.0132 10.8312 13.5912 10.4092C13.1692 9.98726 12.5969 9.75021 12.0002 9.75021ZM8.25021 12.0002C8.25021 11.0056 8.64529 10.0518 9.34856 9.34856C10.0518 8.64529 11.0056 8.25021 12.0002 8.25021C12.9948 8.25021 13.9486 8.64529 14.6519 9.34856C15.3551 10.0518 15.7502 11.0056 15.7502 12.0002C15.7502 12.9948 15.3551 13.9486 14.6519 14.6519C13.9486 15.3551 12.9948 15.7502 12.0002 15.7502C11.0056 15.7502 10.0518 15.3551 9.34856 14.6519C8.64529 13.9486 8.25021 12.9948 8.25021 12.0002Z" fill="#F05778"/>
</svg>
