<svg width="24" height="24" viewBox="0 0 24 24" fill="none" xmlns="http://www.w3.org/2000/svg">
<path fill-rule="evenodd" clip-rule="evenodd" d="M13.47 5.46983C13.6106 5.32938 13.8012 5.25049 14 5.25049C14.1988 5.25049 14.3894 5.32938 14.53 5.46983L20.53 11.4698C20.6705 11.6105 20.7493 11.8011 20.7493 11.9998C20.7493 12.1986 20.6705 12.3892 20.53 12.5298L14.53 18.5298C14.4613 18.6035 14.3785 18.6626 14.2865 18.7036C14.1945 18.7446 14.0952 18.7666 13.9945 18.7684C13.8938 18.7702 13.7938 18.7517 13.7004 18.714C13.607 18.6762 13.5222 18.6201 13.451 18.5489C13.3797 18.4776 13.3236 18.3928 13.2859 18.2994C13.2482 18.206 13.2296 18.106 13.2314 18.0053C13.2332 17.9046 13.2552 17.8053 13.2962 17.7133C13.3372 17.6213 13.3963 17.5385 13.47 17.4698L18.19 12.7498H4C3.80109 12.7498 3.61032 12.6708 3.46967 12.5302C3.32902 12.3895 3.25 12.1987 3.25 11.9998C3.25 11.8009 3.32902 11.6102 3.46967 11.4695C3.61032 11.3288 3.80109 11.2498 4 11.2498H18.19L13.47 6.52983C13.3295 6.3892 13.2507 6.19858 13.2507 5.99983C13.2507 5.80108 13.3295 5.61045 13.47 5.46983Z" fill="#858E99"/>
</svg>
