<svg width="24" height="24" viewBox="0 0 24 24" fill="none" xmlns="http://www.w3.org/2000/svg">
<path fill-rule="evenodd" clip-rule="evenodd" d="M11.943 1.25H12.057C14.366 1.25 16.175 1.25 17.587 1.44C19.031 1.634 20.171 2.04 21.066 2.934C21.961 3.829 22.366 4.969 22.56 6.414C22.75 7.825 22.75 9.634 22.75 11.943V12H22.74C22.75 12.579 22.75 13.23 22.75 13.966V14.034C22.75 15.405 22.75 16.481 22.68 17.345C22.608 18.225 22.459 18.952 22.123 19.61C21.5717 20.692 20.692 21.5717 19.61 22.123C18.952 22.459 18.225 22.608 17.345 22.679C16.481 22.75 15.405 22.75 14.034 22.75H9.966C8.595 22.75 7.519 22.75 6.655 22.68C5.775 22.608 5.048 22.459 4.39 22.123C3.30799 21.5717 2.42829 20.692 1.877 19.61C1.541 18.952 1.393 18.225 1.321 17.345C1.25 16.481 1.25 15.405 1.25 14.034V13.966C1.25 13.23 1.25 12.579 1.26 12H1.25V11.943C1.25 9.634 1.25 7.825 1.44 6.413C1.634 4.969 2.04 3.829 2.934 2.934C3.829 2.039 4.969 1.634 6.414 1.44C7.825 1.25 9.634 1.25 11.943 1.25ZM2.882 6.987C3.32123 6.53777 3.83053 6.16288 4.39 5.877C5.048 5.541 5.775 5.393 6.655 5.321C7.519 5.25 8.595 5.25 9.966 5.25H14.034C15.405 5.25 16.481 5.25 17.345 5.32C18.225 5.393 18.952 5.541 19.61 5.877C20.1695 6.16288 20.6788 6.53777 21.118 6.987C21.1051 6.86246 21.0905 6.73811 21.074 6.614C20.902 5.335 20.574 4.564 20.005 3.994C19.435 3.425 18.665 3.098 17.386 2.926C16.086 2.752 14.378 2.75 12 2.75C9.622 2.75 7.914 2.752 6.614 2.926C5.335 3.098 4.564 3.426 3.994 3.995C3.425 4.565 3.098 5.335 2.926 6.614C2.91 6.734 2.89533 6.85833 2.882 6.987ZM6.777 6.816C5.99 6.88 5.482 7.004 5.071 7.213C4.27095 7.62052 3.62052 8.27095 3.213 9.071C3.003 9.482 2.88 9.99 2.816 10.777C2.751 11.573 2.75 12.587 2.75 14C2.75 15.413 2.75 16.427 2.816 17.223C2.88 18.01 3.004 18.518 3.213 18.93C3.62069 19.7297 4.27111 20.3797 5.071 20.787C5.482 20.997 5.99 21.12 6.777 21.184C7.573 21.249 8.587 21.25 10 21.25H14C15.412 21.25 16.427 21.25 17.223 21.184C18.01 21.12 18.518 20.996 18.93 20.787C19.7295 20.3796 20.3796 19.7295 20.787 18.93C20.997 18.518 21.12 18.01 21.184 17.223C21.249 16.427 21.25 15.413 21.25 14C21.25 12.587 21.25 11.573 21.184 10.777C21.12 9.99 20.996 9.482 20.787 9.071C20.3797 8.27111 19.7297 7.62069 18.93 7.213C18.518 7.003 18.01 6.88 17.223 6.816C16.427 6.751 15.413 6.75 14 6.75H10C8.587 6.75 7.573 6.75 6.777 6.816ZM15 11.44C15.1481 11.5724 15.2376 11.7582 15.2488 11.9566C15.2601 12.1549 15.1922 12.3497 15.06 12.498L11.488 16.498C11.4176 16.5768 11.3314 16.6399 11.235 16.683C11.1386 16.7262 11.0341 16.7485 10.9285 16.7485C10.8229 16.7485 10.7184 16.7262 10.622 16.683C10.5256 16.6399 10.4394 16.5768 10.369 16.498L8.941 14.898C8.87047 14.8255 8.81535 14.7394 8.77896 14.645C8.74256 14.5506 8.72564 14.4498 8.72922 14.3487C8.7328 14.2476 8.7568 14.1482 8.79978 14.0566C8.84275 13.965 8.90382 13.8831 8.9793 13.8157C9.05478 13.7483 9.14311 13.6969 9.23898 13.6646C9.33485 13.6322 9.43627 13.6196 9.53714 13.6275C9.63801 13.6354 9.73624 13.6636 9.82593 13.7104C9.91561 13.7572 9.99489 13.8217 10.059 13.9L10.929 14.873L13.94 11.5C14.0724 11.3519 14.2582 11.2624 14.4566 11.2512C14.6549 11.2399 14.8497 11.3078 14.998 11.44" fill="#F05778"/>
</svg>
